<svg width="231" height="35" viewBox="0 0 231 35" fill="none" xmlns="http://www.w3.org/2000/svg">
<path d="M23.152 16.576C25.2 17.056 26.784 18.048 27.904 19.552C29.056 21.024 29.632 22.736 29.632 24.688C29.632 27.664 28.64 29.968 26.656 31.6C24.704 33.2 21.888 34 18.208 34H0.4V0.0159998H17.728C21.184 0.0159998 23.904 0.768 25.888 2.272C27.872 3.776 28.864 5.968 28.864 8.848C28.864 10.832 28.336 12.512 27.28 13.888C26.256 15.232 24.88 16.128 23.152 16.576ZM11.056 13.264H15.184C16.144 13.264 16.848 13.072 17.296 12.688C17.776 12.304 18.016 11.712 18.016 10.912C18.016 10.08 17.776 9.472 17.296 9.088C16.848 8.672 16.144 8.464 15.184 8.464H11.056V13.264ZM15.904 25.456C16.864 25.456 17.568 25.28 18.016 24.928C18.496 24.544 18.736 23.936 18.736 23.104C18.736 21.472 17.792 20.656 15.904 20.656H11.056V25.456H15.904ZM43.6285 0.0159998V19.168C43.6285 20.736 43.9645 21.984 44.6365 22.912C45.3405 23.808 46.4605 24.256 47.9965 24.256C49.5325 24.256 50.6685 23.808 51.4045 22.912C52.1405 21.984 52.5085 20.736 52.5085 19.168V0.0159998H63.1165V19.168C63.1165 22.4 62.4445 25.168 61.1005 27.472C59.7565 29.744 57.9165 31.456 55.5805 32.608C53.2445 33.76 50.6365 34.336 47.7565 34.336C44.8765 34.336 42.3165 33.76 40.0765 32.608C37.8685 31.456 36.1405 29.744 34.8925 27.472C33.6445 25.2 33.0205 22.432 33.0205 19.168V0.0159998H43.6285ZM84.8005 34L78.4165 21.808H78.3685V34H67.7125V0.0159998H83.5525C86.3045 0.0159998 88.6565 0.511999 90.6085 1.504C92.5605 2.464 94.0165 3.792 94.9765 5.488C95.9685 7.152 96.4645 9.04 96.4645 11.152C96.4645 13.424 95.8245 15.44 94.5445 17.2C93.2965 18.96 91.4885 20.224 89.1205 20.992L96.5125 34H84.8005ZM78.3685 14.704H82.5925C83.6165 14.704 84.3845 14.48 84.8965 14.032C85.4085 13.552 85.6645 12.816 85.6645 11.824C85.6645 10.928 85.3925 10.224 84.8485 9.712C84.3365 9.2 83.5845 8.944 82.5925 8.944H78.3685V14.704ZM132.461 34H121.805L110.525 16.912V34H99.8688V0.0159998H110.525L121.805 17.392V0.0159998H132.461V34ZM153.691 34.336C150.587 34.336 147.723 33.616 145.099 32.176C142.507 30.704 140.443 28.672 138.907 26.08C137.403 23.456 136.651 20.512 136.651 17.248C136.651 13.984 137.403 11.056 138.907 8.464C140.443 5.872 142.507 3.856 145.099 2.416C147.723 0.943997 150.587 0.207997 153.691 0.207997C156.827 0.207997 159.691 0.943997 162.283 2.416C164.907 3.856 166.971 5.872 168.475 8.464C169.979 11.056 170.731 13.984 170.731 17.248C170.731 20.512 169.979 23.456 168.475 26.08C166.971 28.672 164.907 30.704 162.283 32.176C159.691 33.616 156.827 34.336 153.691 34.336ZM153.691 29.584C155.899 29.584 157.867 29.088 159.595 28.096C161.323 27.072 162.667 25.632 163.627 23.776C164.619 21.888 165.115 19.712 165.115 17.248C165.115 14.784 164.619 12.624 163.627 10.768C162.667 8.912 161.323 7.488 159.595 6.496C157.867 5.504 155.899 5.008 153.691 5.008C151.483 5.008 149.515 5.504 147.787 6.496C146.059 7.488 144.699 8.912 143.707 10.768C142.747 12.624 142.267 14.784 142.267 17.248C142.267 19.712 142.747 21.888 143.707 23.776C144.699 25.632 146.059 27.072 147.787 28.096C149.515 29.088 151.483 29.584 153.691 29.584ZM181.54 0.639997V21.904C181.54 24.432 182.196 26.336 183.508 27.616C184.852 28.896 186.708 29.536 189.076 29.536C191.476 29.536 193.332 28.896 194.644 27.616C195.988 26.336 196.66 24.432 196.66 21.904V0.639997H202.132V21.808C202.132 24.528 201.54 26.832 200.356 28.72C199.172 30.608 197.588 32.016 195.604 32.944C193.62 33.872 191.428 34.336 189.028 34.336C186.628 34.336 184.436 33.872 182.452 32.944C180.5 32.016 178.948 30.608 177.796 28.72C176.644 26.832 176.068 24.528 176.068 21.808V0.639997H181.54ZM230.808 0.639997V5.104H221.928V34H216.456V5.104H207.528V0.639997H230.808Z" fill="#1E1E1E"/>
</svg>
